<?xml version="1.0" standalone="no"?>
<!DOCTYPE svg PUBLIC "-//W3C//DTD SVG 20010904//EN"
 "http://www.w3.org/TR/2001/REC-SVG-20010904/DTD/svg10.dtd">
<svg version="1.0" xmlns="http://www.w3.org/2000/svg"
 width="1024.000000pt" height="1024.000000pt" viewBox="0 0 1024.000000 1024.000000"
 preserveAspectRatio="xMidYMid meet">

<g transform="translate(0.000000,1024.000000) scale(0.100000,-0.100000)"
fill="#000000" stroke="none">
<path d="M5165 7981 c-17 -4 -38 -12 -48 -17 -39 -22 -2665 -2645 -2681 -2678
-20 -42 -21 -98 -2 -134 8 -16 253 -264 544 -553 567 -563 665 -649 806 -708
222 -92 518 -96 762 -10 86 30 161 66 679 319 149 72 380 184 515 247 135 64
418 200 630 303 212 103 517 252 679 330 161 79 321 159 355 179 96 56 234
200 283 296 45 89 70 155 84 230 13 67 12 279 -1 346 -25 120 -72 199 -120
199 -10 0 -85 -22 -166 -49 -82 -26 -200 -63 -262 -81 l-113 -34 -72 70 c-39
38 -444 440 -899 894 -538 535 -841 831 -866 842 -40 19 -59 20 -107 9z m780
-1209 c405 -404 735 -735 733 -737 -8 -9 -205 -70 -528 -165 -190 -56 -381
-112 -425 -125 -627 -189 -941 -283 -1040 -311 -248 -72 -675 -207 -675 -215
0 -4 24 -13 53 -19 186 -44 344 -166 423 -325 47 -95 60 -171 44 -258 -54
-307 -378 -469 -659 -331 -70 35 -102 65 -518 481 -245 244 -443 449 -441 454
5 16 2282 2289 2290 2286 3 -1 338 -332 743 -735z"/>
<path d="M7555 4788 c-202 -135 -557 -381 -975 -674 -441 -308 -518 -364 -862
-620 -156 -116 -318 -235 -360 -264 l-78 -54 -82 12 c-98 14 -285 77 -548 184
-107 44 -247 99 -310 123 -63 24 -161 61 -218 84 -57 22 -102 36 -100 31 2 -5
246 -255 543 -556 379 -385 552 -553 580 -565 49 -22 104 -24 151 -4 19 8 116
92 217 187 224 212 2207 2197 2207 2209 0 16 -14 8 -165 -93z"/>
</g>
</svg>
