<svg width="1200" height="630" viewBox="0 0 1200 630" fill="none" xmlns="http://www.w3.org/2000/svg">
<rect width="1200" height="630" fill="url(#gradient)"/>
<defs>
<linearGradient id="gradient" x1="0%" y1="0%" x2="100%" y2="100%">
<stop offset="0%" style="stop-color:#4A90E2;stop-opacity:1" />
<stop offset="100%" style="stop-color:#357ABD;stop-opacity:1" />
</linearGradient>
</defs>
<rect x="50" y="150" width="300" height="400" rx="15" fill="white" opacity="0.95"/>
<rect x="380" y="150" width="300" height="400" rx="15" fill="white" opacity="0.95"/>
<rect x="710" y="150" width="300" height="400" rx="15" fill="white" opacity="0.95"/>
<circle cx="1050" cy="100" r="25" fill="#FF6B6B"/>
<text x="600" y="80" text-anchor="middle" fill="white" font-family="Arial, sans-serif" font-size="48" font-weight="bold">My Notes</text>
<text x="600" y="120" text-anchor="middle" fill="white" font-family="Arial, sans-serif" font-size="24">Editor de Notas Avanzado</text>
<text x="200" y="200" text-anchor="middle" fill="#4A90E2" font-family="Arial, sans-serif" font-size="18" font-weight="bold">Formato Rico</text>
<text x="530" y="200" text-anchor="middle" fill="#4A90E2" font-family="Arial, sans-serif" font-size="18" font-weight="bold">Ecuaciones</text>
<text x="860" y="200" text-anchor="middle" fill="#4A90E2" font-family="Arial, sans-serif" font-size="18" font-weight="bold">Multimedia</text>
<rect x="70" y="220" width="260" height="4" rx="2" fill="#4A90E2"/>
<rect x="70" y="240" width="200" height="4" rx="2" fill="#ccc"/>
<rect x="70" y="260" width="220" height="4" rx="2" fill="#ccc"/>
<path d="M400 250 L420 230 L440 250 L460 230 L480 250 L500 230 L520 250 L540 230 L560 250 L580 230 L600 250 L620 230 L640 250 L660 230" stroke="#4A90E2" stroke-width="3" fill="none"/>
<text x="530" y="280" text-anchor="middle" fill="#4A90E2" font-family="Arial, sans-serif" font-size="16">∑ ∫ √ ≈ ∞</text>
<rect x="730" y="230" width="80" height="60" rx="8" fill="#4A90E2"/>
<circle cx="820" cy="260" r="15" fill="#FF6B6B"/>
<rect x="850" y="245" width="120" height="30" rx="4" fill="#95D5B2"/>
<text x="910" y="265" text-anchor="middle" fill="white" font-family="Arial, sans-serif" font-size="12">▶ Video</text>
</svg>
