<svg width="1024" height="512" viewBox="0 0 1024 512" fill="none" xmlns="http://www.w3.org/2000/svg">
<rect width="1024" height="512" fill="url(#gradient)"/>
<defs>
<linearGradient id="gradient" x1="0%" y1="0%" x2="100%" y2="100%">
<stop offset="0%" style="stop-color:#4A90E2;stop-opacity:1" />
<stop offset="100%" style="stop-color:#357ABD;stop-opacity:1" />
</linearGradient>
</defs>
<rect x="50" y="100" width="250" height="300" rx="12" fill="white" opacity="0.95"/>
<rect x="320" y="100" width="250" height="300" rx="12" fill="white" opacity="0.95"/>
<rect x="590" y="100" width="250" height="300" rx="12" fill="white" opacity="0.95"/>
<circle cx="900" cy="80" r="20" fill="#FF6B6B"/>
<text x="512" y="60" text-anchor="middle" fill="white" font-family="Arial, sans-serif" font-size="40" font-weight="bold">My Notes</text>
<text x="175" y="140" text-anchor="middle" fill="#4A90E2" font-family="Arial, sans-serif" font-size="16" font-weight="bold">Editor Rico</text>
<text x="445" y="140" text-anchor="middle" fill="#4A90E2" font-family="Arial, sans-serif" font-size="16" font-weight="bold">Matemáticas</text>
<text x="715" y="140" text-anchor="middle" fill="#4A90E2" font-family="Arial, sans-serif" font-size="16" font-weight="bold">Multimedia</text>
<rect x="70" y="160" width="210" height="3" rx="1" fill="#4A90E2"/>
<rect x="70" y="175" width="160" height="3" rx="1" fill="#ccc"/>
<rect x="70" y="190" width="180" height="3" rx="1" fill="#ccc"/>
<text x="445" y="180" text-anchor="middle" fill="#4A90E2" font-family="Arial, sans-serif" font-size="14">√x² + y² = z</text>
<rect x="610" y="160" width="60" height="45" rx="6" fill="#4A90E2"/>
<circle cx="680" cy="182" r="10" fill="#FF6B6B"/>
<rect x="700" y="172" width="90" height="20" rx="3" fill="#95D5B2"/>
<text x="745" y="185" text-anchor="middle" fill="white" font-family="Arial, sans-serif" font-size="10">▶ Video</text>
</svg>
